<svg width="1046" height="247" viewBox="0 0 1046 247" fill="none" xmlns="http://www.w3.org/2000/svg">
<path d="M0 186C0 174.954 8.95431 166 20 166H80V246H20C8.95431 246 0 237.046 0 226V186Z" fill="#F4471D"/>
<path d="M80 106C80 94.9543 88.9543 86 100 86H160V246H80V106Z" fill="#E51104"/>
<path d="M160 26C160 14.9543 168.954 6 180 6H220C231.046 6 240 14.9543 240 26V226C240 237.046 231.046 246 220 246H160V26Z" fill="#08101A"/>
<path d="M343.799 25.2345H355.419V75.7243C355.419 81.0969 354.157 85.8573 351.633 90.0054C349.109 94.1285 345.561 97.3771 340.988 99.751C336.415 102.1 331.055 103.274 324.907 103.274C318.785 103.274 313.438 102.1 308.865 99.751C304.292 97.3771 300.743 94.1285 298.22 90.0054C295.696 85.8573 294.434 81.0969 294.434 75.7243V25.2345H306.016V74.7872C306.016 78.2607 306.778 81.3468 308.302 84.0456C309.852 86.7444 312.038 88.8684 314.862 90.4177C317.686 91.942 321.034 92.7042 324.907 92.7042C328.806 92.7042 332.167 91.942 334.99 90.4177C337.839 88.8684 340.013 86.7444 341.513 84.0456C343.037 81.3468 343.799 78.2607 343.799 74.7872V25.2345ZM382.566 67.8154V102H371.358V44.4259H382.116V53.7967H382.828C384.153 50.7481 386.227 48.2992 389.051 46.45C391.899 44.6008 395.485 43.6762 399.808 43.6762C403.731 43.6762 407.167 44.5009 410.116 46.1501C413.065 47.7744 415.351 50.1983 416.975 53.4219C418.6 56.6454 419.412 60.6311 419.412 65.379V102H408.204V66.7284C408.204 62.5552 407.117 59.2942 404.943 56.9453C402.769 54.5713 399.783 53.3844 395.985 53.3844C393.386 53.3844 391.075 53.9466 389.051 55.0711C387.051 56.1956 385.465 57.8449 384.29 60.0189C383.141 62.1679 382.566 64.7668 382.566 67.8154ZM458.694 103.162C453.297 103.162 448.586 101.925 444.563 99.4511C440.54 96.9773 437.416 93.5163 435.192 89.0683C432.968 84.6203 431.856 79.4227 431.856 73.4753C431.856 67.503 432.968 62.2804 435.192 57.8074C437.416 53.3344 440.54 49.861 444.563 47.3871C448.586 44.9132 453.297 43.6762 458.694 43.6762C464.092 43.6762 468.802 44.9132 472.825 47.3871C476.849 49.861 479.972 53.3344 482.196 57.8074C484.42 62.2804 485.532 67.503 485.532 73.4753C485.532 79.4227 484.42 84.6203 482.196 89.0683C479.972 93.5163 476.849 96.9773 472.825 99.4511C468.802 101.925 464.092 103.162 458.694 103.162ZM458.732 93.7537C462.23 93.7537 465.129 92.8291 467.428 90.98C469.727 89.1308 471.426 86.6694 472.525 83.5958C473.65 80.5222 474.212 77.1362 474.212 73.4379C474.212 69.7645 473.65 66.391 472.525 63.3174C471.426 60.2188 469.727 57.7324 467.428 55.8583C465.129 53.9841 462.23 53.047 458.732 53.047C455.208 53.047 452.285 53.9841 449.961 55.8583C447.662 57.7324 445.95 60.2188 444.825 63.3174C443.726 66.391 443.176 69.7645 443.176 73.4379C443.176 77.1362 443.726 80.5222 444.825 83.5958C445.95 86.6694 447.662 89.1308 449.961 90.98C452.285 92.8291 455.208 93.7537 458.732 93.7537ZM498.942 102V25.2345H526.304C532.277 25.2345 537.224 26.3215 541.148 28.4956C545.071 30.6696 548.007 33.6433 549.956 37.4166C551.905 41.1649 552.88 45.388 552.88 50.0859C552.88 54.8087 551.893 59.0568 549.919 62.8301C547.97 66.5784 545.021 69.5521 541.073 71.7511C537.149 73.9251 532.214 75.0121 526.267 75.0121H507.45V65.1916H525.217C528.991 65.1916 532.052 64.5419 534.401 63.2424C536.75 61.918 538.474 60.1188 539.573 57.8449C540.673 55.5709 541.223 52.9846 541.223 50.0859C541.223 47.1872 540.673 44.6133 539.573 42.3643C538.474 40.1153 536.737 38.3536 534.363 37.0792C532.014 35.8048 528.916 35.1676 525.067 35.1676H510.524V102H498.942ZM565.559 102V44.4259H576.766V102H565.559ZM571.219 35.5424C569.269 35.5424 567.595 34.8927 566.196 33.5933C564.821 32.2689 564.134 30.6946 564.134 28.8704C564.134 27.0212 564.821 25.4469 566.196 24.1475C567.595 22.8231 569.269 22.1609 571.219 22.1609C573.168 22.1609 574.829 22.8231 576.204 24.1475C577.603 25.4469 578.303 27.0212 578.303 28.8704C578.303 30.6946 577.603 32.2689 576.204 33.5933C574.829 34.8927 573.168 35.5424 571.219 35.5424ZM616.657 103.162C610.985 103.162 606.1 101.95 602.002 99.5261C597.928 97.0772 594.78 93.6413 592.556 89.2183C590.357 84.7703 589.257 79.5601 589.257 73.5878C589.257 67.6904 590.357 62.4928 592.556 57.9948C594.78 53.4968 597.878 49.9859 601.852 47.462C605.85 44.9382 610.523 43.6762 615.87 43.6762C619.119 43.6762 622.267 44.2135 625.316 45.288C628.365 46.3625 631.101 48.0493 633.525 50.3482C635.949 52.6472 637.86 55.6334 639.26 59.3067C640.659 62.9551 641.359 67.3906 641.359 72.6132V76.5864H595.592V68.1902H630.376C630.376 65.2415 629.777 62.6302 628.577 60.3562C627.378 58.0573 625.691 56.2456 623.517 54.9212C621.368 53.5968 618.844 52.9346 615.945 52.9346C612.797 52.9346 610.048 53.7092 607.699 55.2585C605.375 56.7828 603.576 58.7819 602.301 61.2558C601.052 63.7047 600.427 66.366 600.427 69.2397V75.7993C600.427 79.6476 601.102 82.9211 602.451 85.6199C603.826 88.3187 605.737 90.3802 608.186 91.8046C610.635 93.204 613.496 93.9036 616.77 93.9036C618.894 93.9036 620.831 93.6038 622.58 93.004C624.329 92.3793 625.841 91.4547 627.115 90.2303C628.39 89.0058 629.364 87.494 630.039 85.6948L640.647 87.6065C639.797 90.7301 638.273 93.4663 636.074 95.8153C633.9 98.1392 631.163 99.9509 627.865 101.25C624.591 102.525 620.856 103.162 616.657 103.162Z" fill="#302E30"/>
<path d="M319.285 220.15H294.434V143.384H320.072C327.594 143.384 334.053 144.921 339.451 147.995C344.849 151.043 348.984 155.429 351.858 161.151C354.757 166.849 356.206 173.683 356.206 181.654C356.206 189.651 354.744 196.523 351.82 202.27C348.922 208.017 344.724 212.441 339.226 215.539C333.729 218.613 327.082 220.15 319.285 220.15ZM306.016 210.029H318.648C324.495 210.029 329.355 208.93 333.229 206.731C337.102 204.507 340.001 201.296 341.925 197.097C343.849 192.874 344.811 187.727 344.811 181.654C344.811 175.632 343.849 170.522 341.925 166.324C340.026 162.126 337.189 158.94 333.416 156.766C329.643 154.592 324.957 153.505 319.36 153.505H306.016V210.029ZM394.523 221.312C388.851 221.312 383.965 220.1 379.867 217.676C375.794 215.227 372.645 211.791 370.421 207.368C368.222 202.92 367.123 197.71 367.123 191.737C367.123 185.84 368.222 180.642 370.421 176.144C372.645 171.646 375.744 168.135 379.717 165.612C383.715 163.088 388.388 161.826 393.736 161.826C396.984 161.826 400.133 162.363 403.182 163.438C406.23 164.512 408.967 166.199 411.39 168.498C413.814 170.797 415.726 173.783 417.125 177.456C418.525 181.105 419.224 185.54 419.224 190.763V194.736H373.458V186.34H408.242C408.242 183.391 407.642 180.78 406.443 178.506C405.243 176.207 403.556 174.395 401.382 173.071C399.233 171.746 396.71 171.084 393.811 171.084C390.662 171.084 387.914 171.859 385.565 173.408C383.241 174.932 381.441 176.931 380.167 179.405C378.918 181.854 378.293 184.516 378.293 187.389V193.949C378.293 197.797 378.968 201.071 380.317 203.769C381.691 206.468 383.603 208.53 386.052 209.954C388.501 211.353 391.362 212.053 394.635 212.053C396.76 212.053 398.696 211.753 400.445 211.154C402.195 210.529 403.706 209.604 404.981 208.38C406.255 207.155 407.23 205.644 407.905 203.844L418.512 205.756C417.663 208.88 416.138 211.616 413.939 213.965C411.765 216.289 409.029 218.1 405.731 219.4C402.457 220.674 398.721 221.312 394.523 221.312ZM474.803 176.632L464.645 178.431C464.22 177.131 463.545 175.894 462.621 174.72C461.721 173.546 460.496 172.583 458.947 171.834C457.398 171.084 455.461 170.709 453.137 170.709C449.964 170.709 447.315 171.421 445.191 172.846C443.067 174.245 442.005 176.057 442.005 178.281C442.005 180.205 442.717 181.754 444.141 182.929C445.566 184.103 447.865 185.065 451.038 185.815L460.184 187.914C465.482 189.138 469.43 191.025 472.029 193.574C474.628 196.123 475.927 199.434 475.927 203.507C475.927 206.955 474.927 210.029 472.928 212.728C470.954 215.402 468.193 217.501 464.645 219.025C461.121 220.549 457.036 221.312 452.388 221.312C445.941 221.312 440.68 219.937 436.607 217.188C432.534 214.415 430.035 210.479 429.111 205.381L439.943 203.732C440.618 206.556 442.005 208.692 444.104 210.142C446.203 211.566 448.939 212.278 452.313 212.278C455.986 212.278 458.922 211.516 461.121 209.992C463.32 208.442 464.42 206.556 464.42 204.332C464.42 202.532 463.745 201.021 462.396 199.796C461.071 198.572 459.035 197.647 456.286 197.022L446.54 194.886C441.168 193.661 437.194 191.712 434.621 189.039C432.072 186.365 430.797 182.979 430.797 178.881C430.797 175.482 431.747 172.508 433.646 169.96C435.545 167.411 438.169 165.424 441.518 164C444.866 162.55 448.702 161.826 453.025 161.826C459.247 161.826 464.145 163.175 467.718 165.874C471.292 168.548 473.653 172.134 474.803 176.632ZM488.25 220.15V162.575H499.457V220.15H488.25ZM493.91 153.692C491.96 153.692 490.286 153.042 488.887 151.743C487.512 150.418 486.825 148.844 486.825 147.02C486.825 145.171 487.512 143.596 488.887 142.297C490.286 140.973 491.96 140.31 493.91 140.31C495.859 140.31 497.52 140.973 498.895 142.297C500.294 143.596 500.994 145.171 500.994 147.02C500.994 148.844 500.294 150.418 498.895 151.743C497.52 153.042 495.859 153.692 493.91 153.692ZM538.674 242.939C534.101 242.939 530.165 242.34 526.867 241.14C523.593 239.941 520.919 238.354 518.845 236.38C516.771 234.406 515.222 232.244 514.197 229.895L523.83 225.922C524.505 227.021 525.405 228.183 526.529 229.408C527.679 230.657 529.228 231.719 531.177 232.594C533.151 233.469 535.688 233.906 538.786 233.906C543.034 233.906 546.545 232.869 549.319 230.795C552.093 228.746 553.48 225.472 553.48 220.974V209.654H552.767C552.093 210.879 551.118 212.241 549.844 213.74C548.594 215.239 546.87 216.539 544.671 217.638C542.472 218.738 539.611 219.287 536.087 219.287C531.54 219.287 527.441 218.225 523.793 216.101C520.17 213.952 517.296 210.791 515.172 206.618C513.073 202.42 512.023 197.26 512.023 191.138C512.023 185.015 513.06 179.768 515.134 175.395C517.233 171.022 520.107 167.673 523.756 165.349C527.404 163 531.54 161.826 536.162 161.826C539.736 161.826 542.622 162.426 544.821 163.625C547.02 164.799 548.732 166.174 549.956 167.748C551.206 169.322 552.168 170.709 552.842 171.909H553.667V162.575H564.65V221.424C564.65 226.372 563.5 230.432 561.201 233.606C558.902 236.78 555.791 239.128 551.868 240.653C547.97 242.177 543.572 242.939 538.674 242.939ZM538.561 209.992C541.785 209.992 544.509 209.242 546.733 207.743C548.982 206.218 550.681 204.044 551.83 201.221C553.005 198.372 553.592 194.961 553.592 190.988C553.592 187.114 553.017 183.703 551.868 180.755C550.718 177.806 549.032 175.507 546.808 173.858C544.584 172.184 541.835 171.346 538.561 171.346C535.188 171.346 532.377 172.221 530.128 173.97C527.879 175.695 526.179 178.043 525.03 181.017C523.905 183.991 523.343 187.314 523.343 190.988C523.343 194.761 523.918 198.072 525.067 200.921C526.217 203.769 527.916 205.993 530.165 207.593C532.439 209.192 535.238 209.992 538.561 209.992ZM590.888 185.965V220.15H579.68V162.575H590.438V171.946H591.15C592.475 168.898 594.549 166.449 597.372 164.6C600.221 162.75 603.807 161.826 608.13 161.826C612.053 161.826 615.489 162.65 618.438 164.3C621.387 165.924 623.673 168.348 625.297 171.571C626.922 174.795 627.734 178.781 627.734 183.529V220.15H616.526V184.878C616.526 180.705 615.439 177.444 613.265 175.095C611.091 172.721 608.105 171.534 604.307 171.534C601.708 171.534 599.396 172.096 597.372 173.221C595.373 174.345 593.787 175.994 592.612 178.168C591.463 180.317 590.888 182.916 590.888 185.965ZM678.083 220.15H665.788L693.414 143.384H706.795L734.42 220.15H722.126L700.423 157.328H699.823L678.083 220.15ZM680.145 190.088H720.027V199.834H680.145V190.088ZM767.818 242.939C763.245 242.939 759.309 242.34 756.01 241.14C752.737 239.941 750.063 238.354 747.989 236.38C745.915 234.406 744.366 232.244 743.341 229.895L752.974 225.922C753.649 227.021 754.549 228.183 755.673 229.408C756.823 230.657 758.372 231.719 760.321 232.594C762.295 233.469 764.831 233.906 767.93 233.906C772.178 233.906 775.689 232.869 778.463 230.795C781.237 228.746 782.623 225.472 782.623 220.974V209.654H781.911C781.237 210.879 780.262 212.241 778.988 213.74C777.738 215.239 776.014 216.539 773.815 217.638C771.616 218.738 768.755 219.287 765.231 219.287C760.683 219.287 756.585 218.225 752.937 216.101C749.313 213.952 746.44 210.791 744.316 206.618C742.217 202.42 741.167 197.26 741.167 191.138C741.167 185.015 742.204 179.768 744.278 175.395C746.377 171.022 749.251 167.673 752.899 165.349C756.548 163 760.683 161.826 765.306 161.826C768.88 161.826 771.766 162.426 773.965 163.625C776.164 164.799 777.876 166.174 779.1 167.748C780.349 169.322 781.311 170.709 781.986 171.909H782.811V162.575H793.793V221.424C793.793 226.372 792.644 230.432 790.345 233.606C788.046 236.78 784.935 239.128 781.012 240.653C777.113 242.177 772.715 242.939 767.818 242.939ZM767.705 209.992C770.929 209.992 773.652 209.242 775.876 207.743C778.125 206.218 779.825 204.044 780.974 201.221C782.149 198.372 782.736 194.961 782.736 190.988C782.736 187.114 782.161 183.703 781.012 180.755C779.862 177.806 778.175 175.507 775.951 173.858C773.727 172.184 770.979 171.346 767.705 171.346C764.332 171.346 761.52 172.221 759.271 173.97C757.022 175.695 755.323 178.043 754.174 181.017C753.049 183.991 752.487 187.314 752.487 190.988C752.487 194.761 753.062 198.072 754.211 200.921C755.361 203.769 757.06 205.993 759.309 207.593C761.583 209.192 764.382 209.992 767.705 209.992ZM833.638 221.312C827.965 221.312 823.08 220.1 818.982 217.676C814.909 215.227 811.76 211.791 809.536 207.368C807.337 202.92 806.238 197.71 806.238 191.737C806.238 185.84 807.337 180.642 809.536 176.144C811.76 171.646 814.859 168.135 818.832 165.612C822.83 163.088 827.503 161.826 832.851 161.826C836.099 161.826 839.248 162.363 842.297 163.438C845.345 164.512 848.081 166.199 850.505 168.498C852.929 170.797 854.841 173.783 856.24 177.456C857.64 181.105 858.339 185.54 858.339 190.763V194.736H812.572V186.34H847.357C847.357 183.391 846.757 180.78 845.558 178.506C844.358 176.207 842.671 174.395 840.497 173.071C838.348 171.746 835.824 171.084 832.926 171.084C829.777 171.084 827.028 171.859 824.679 173.408C822.355 174.932 820.556 176.931 819.282 179.405C818.032 181.854 817.408 184.516 817.408 187.389V193.949C817.408 197.797 818.082 201.071 819.432 203.769C820.806 206.468 822.718 208.53 825.167 209.954C827.616 211.353 830.477 212.053 833.75 212.053C835.874 212.053 837.811 211.753 839.56 211.154C841.309 210.529 842.821 209.604 844.096 208.38C845.37 207.155 846.345 205.644 847.019 203.844L857.627 205.756C856.778 208.88 855.253 211.616 853.054 213.965C850.88 216.289 848.144 218.1 844.845 219.4C841.572 220.674 837.836 221.312 833.638 221.312ZM881.982 185.965V220.15H870.774V162.575H881.532V171.946H882.244C883.569 168.898 885.643 166.449 888.466 164.6C891.315 162.75 894.901 161.826 899.224 161.826C903.147 161.826 906.583 162.65 909.532 164.3C912.481 165.924 914.767 168.348 916.391 171.571C918.016 174.795 918.828 178.781 918.828 183.529V220.15H907.62V184.878C907.62 180.705 906.533 177.444 904.359 175.095C902.185 172.721 899.199 171.534 895.401 171.534C892.802 171.534 890.49 172.096 888.466 173.221C886.467 174.345 884.88 175.994 883.706 178.168C882.557 180.317 881.982 182.916 881.982 185.965ZM958.11 221.312C952.538 221.312 947.74 220.05 943.717 217.526C939.718 214.977 936.645 211.466 934.496 206.993C932.347 202.52 931.272 197.397 931.272 191.625C931.272 185.777 932.372 180.617 934.571 176.144C936.77 171.646 939.868 168.135 943.866 165.612C947.865 163.088 952.575 161.826 957.998 161.826C962.371 161.826 966.269 162.638 969.692 164.262C973.116 165.861 975.877 168.11 977.976 171.009C980.1 173.908 981.362 177.294 981.762 181.167H970.854C970.255 178.468 968.88 176.144 966.731 174.195C964.607 172.246 961.758 171.272 958.185 171.272C955.061 171.272 952.325 172.096 949.976 173.745C947.652 175.37 945.841 177.694 944.541 180.717C943.242 183.716 942.592 187.264 942.592 191.362C942.592 195.561 943.229 199.184 944.504 202.233C945.778 205.281 947.577 207.643 949.901 209.317C952.25 210.991 955.011 211.828 958.185 211.828C960.309 211.828 962.233 211.441 963.957 210.666C965.707 209.867 967.168 208.73 968.343 207.255C969.542 205.781 970.38 204.007 970.854 201.933H981.762C981.362 205.656 980.15 208.98 978.126 211.903C976.102 214.827 973.391 217.126 969.992 218.8C966.619 220.474 962.658 221.312 958.11 221.312ZM1000.83 241.74C999.157 241.74 997.633 241.602 996.258 241.328C994.884 241.078 993.86 240.803 993.185 240.503L995.884 231.32C997.933 231.869 999.757 232.107 1001.36 232.032C1002.96 231.957 1004.37 231.357 1005.59 230.232C1006.84 229.108 1007.94 227.271 1008.89 224.722L1010.28 220.899L989.212 162.575H1001.21L1015.79 207.255H1016.39L1030.97 162.575H1043L1019.27 227.834C1018.17 230.832 1016.77 233.369 1015.08 235.443C1013.38 237.542 1011.35 239.116 1009 240.166C1006.65 241.215 1003.93 241.74 1000.83 241.74Z" fill="#302E30"/>
</svg>
